<?xml version="1.0" encoding="UTF-8" standalone="no"?>
<!DOCTYPE svg PUBLIC "-//W3C//DTD SVG 1.1//EN"
 "http://www.w3.org/Graphics/SVG/1.1/DTD/svg11.dtd">
<!-- Generated by graphviz version 14.0.5 (20251129.0259)
 -->
<!-- Title: PromptsFlow Pages: 1 -->
<svg width="979pt" height="755pt"
 viewBox="0.00 0.00 979.00 755.00" xmlns="http://www.w3.org/2000/svg" xmlns:xlink="http://www.w3.org/1999/xlink">
<g id="graph0" class="graph" transform="scale(1 1) rotate(0) translate(36 719.43)">
<title>PromptsFlow</title>
<polygon fill="white" stroke="none" points="-36,36 -36,-719.43 942.5,-719.43 942.5,36 -36,36"/>
<g id="clust1" class="cluster">
<title>cluster_interviewer</title>
<path fill="#fff3e0" stroke="#ff9800" d="M20,-240.43C20,-240.43 876,-240.43 876,-240.43 882,-240.43 888,-246.43 888,-252.43 888,-252.43 888,-432.43 888,-432.43 888,-438.43 882,-444.43 876,-444.43 876,-444.43 20,-444.43 20,-444.43 14,-444.43 8,-438.43 8,-432.43 8,-432.43 8,-252.43 8,-252.43 8,-246.43 14,-240.43 20,-240.43"/>
<text xml:space="preserve" text-anchor="middle" x="448" y="-429.03" font-family="Times,serif" font-size="12.00">INTERVIEWER AGENT</text>
</g>
<g id="clust2" class="cluster">
<title>cluster_generator</title>
<path fill="#e8f5e9" stroke="#4caf50" d="M51.5,-471.43C51.5,-471.43 862.12,-471.43 862.12,-471.43 868.12,-471.43 874.12,-477.43 874.12,-483.43 874.12,-483.43 874.12,-663.43 874.12,-663.43 874.12,-669.43 868.12,-675.43 862.12,-675.43 862.12,-675.43 51.5,-675.43 51.5,-675.43 45.5,-675.43 39.5,-669.43 39.5,-663.43 39.5,-663.43 39.5,-483.43 39.5,-483.43 39.5,-477.43 45.5,-471.43 51.5,-471.43"/>
<text xml:space="preserve" text-anchor="middle" x="456.81" y="-660.03" font-family="Times,serif" font-size="12.00">GENERATOR AGENT</text>
</g>
<g id="clust3" class="cluster">
<title>cluster_editor</title>
<path fill="#fce4ec" stroke="#e91e63" d="M29.38,-58.43C29.38,-58.43 886.5,-58.43 886.5,-58.43 892.5,-58.43 898.5,-64.43 898.5,-70.43 898.5,-70.43 898.5,-220.43 898.5,-220.43 898.5,-226.43 892.5,-232.43 886.5,-232.43 886.5,-232.43 29.37,-232.43 29.37,-232.43 23.38,-232.43 17.38,-226.43 17.38,-220.43 17.38,-220.43 17.38,-70.43 17.38,-70.43 17.38,-64.43 23.38,-58.43 29.38,-58.43"/>
<text xml:space="preserve" text-anchor="middle" x="457.94" y="-217.03" font-family="Times,serif" font-size="12.00">EDITOR AGENT</text>
</g>
<!-- InterviewerPrompt -->
<g id="node1" class="node">
<title>InterviewerPrompt</title>
<polygon fill="#ffcc80" stroke="none" points="316.75,-380.43 316.75,-410.43 606.25,-410.43 606.25,-380.43 316.75,-380.43"/>
<polygon fill="none" stroke="black" points="316.75,-380.43 316.75,-410.43 606.25,-410.43 606.25,-380.43 316.75,-380.43"/>
<text xml:space="preserve" text-anchor="start" x="425.5" y="-392.93" font-family="Arial" font-weight="bold" font-size="10.00">System Prompt</text>
<polygon fill="none" stroke="black" points="316.75,-252.43 316.75,-380.43 606.25,-380.43 606.25,-252.43 316.75,-252.43"/>
<text xml:space="preserve" text-anchor="start" x="325.75" y="-362.93" font-family="Arial" font-size="10.00"> &#160;&#160;&#160;&#160;&#160;&#160;&#160;&#160;&#160;&#160;&#160;&#160;&#160;&#160;&#160;&#160;&#160;&#160;&#160;&#160;&#160;&#160;&#160;Ты — ИИ&#45;маркетолог и интервьюер.</text>
<text xml:space="preserve" text-anchor="start" x="325.75" y="-352.93" font-family="Arial" font-size="10.00"> &#160;&#160;&#160;&#160;&#160;&#160;&#160;&#160;&#160;&#160;&#160;&#160;&#160;&#160;&#160;&#160;&#160;&#160;&#160;&#160;&#160;&#160;&#160;</text>
<text xml:space="preserve" text-anchor="start" x="325.75" y="-342.93" font-family="Arial" font-size="10.00"> &#160;&#160;&#160;&#160;&#160;&#160;&#160;&#160;&#160;&#160;&#160;&#160;&#160;&#160;&#160;&#160;&#160;&#160;&#160;&#160;&#160;&#160;&#160;</text>
<text xml:space="preserve" text-anchor="start" x="397.75" y="-342.93" font-family="Arial" font-weight="bold" font-size="10.00">Роль:</text>
<text xml:space="preserve" text-anchor="start" x="325.75" y="-332.93" font-family="Arial" font-size="10.00"> &#160;&#160;&#160;&#160;&#160;&#160;&#160;&#160;&#160;&#160;&#160;&#160;&#160;&#160;&#160;&#160;&#160;&#160;&#160;&#160;&#160;&#160;&#160;• Веди беседу как эксперт</text>
<text xml:space="preserve" text-anchor="start" x="325.75" y="-322.93" font-family="Arial" font-size="10.00"> &#160;&#160;&#160;&#160;&#160;&#160;&#160;&#160;&#160;&#160;&#160;&#160;&#160;&#160;&#160;&#160;&#160;&#160;&#160;&#160;&#160;&#160;&#160;• Задавай открытые вопросы</text>
<text xml:space="preserve" text-anchor="start" x="325.75" y="-312.93" font-family="Arial" font-size="10.00"> &#160;&#160;&#160;&#160;&#160;&#160;&#160;&#160;&#160;&#160;&#160;&#160;&#160;&#160;&#160;&#160;&#160;&#160;&#160;&#160;&#160;&#160;&#160;• Извлекай AJTBD&#45;сущности</text>
<text xml:space="preserve" text-anchor="start" x="325.75" y="-302.93" font-family="Arial" font-size="10.00"> &#160;&#160;&#160;&#160;&#160;&#160;&#160;&#160;&#160;&#160;&#160;&#160;&#160;&#160;&#160;&#160;&#160;&#160;&#160;&#160;&#160;&#160;&#160;</text>
<text xml:space="preserve" text-anchor="start" x="325.75" y="-292.93" font-family="Arial" font-size="10.00"> &#160;&#160;&#160;&#160;&#160;&#160;&#160;&#160;&#160;&#160;&#160;&#160;&#160;&#160;&#160;&#160;&#160;&#160;&#160;&#160;&#160;&#160;&#160;</text>
<text xml:space="preserve" text-anchor="start" x="397.75" y="-292.93" font-family="Arial" font-weight="bold" font-size="10.00">Правила:</text>
<text xml:space="preserve" text-anchor="start" x="325.75" y="-282.93" font-family="Arial" font-size="10.00"> &#160;&#160;&#160;&#160;&#160;&#160;&#160;&#160;&#160;&#160;&#160;&#160;&#160;&#160;&#160;&#160;&#160;&#160;&#160;&#160;&#160;&#160;&#160;• 1 вопрос за раз</text>
<text xml:space="preserve" text-anchor="start" x="325.75" y="-272.93" font-family="Arial" font-size="10.00"> &#160;&#160;&#160;&#160;&#160;&#160;&#160;&#160;&#160;&#160;&#160;&#160;&#160;&#160;&#160;&#160;&#160;&#160;&#160;&#160;&#160;&#160;&#160;• Без терминов AJTBD</text>
<text xml:space="preserve" text-anchor="start" x="325.75" y="-262.93" font-family="Arial" font-size="10.00"> &#160;&#160;&#160;&#160;&#160;&#160;&#160;&#160;&#160;&#160;&#160;&#160;&#160;&#160;&#160;&#160;&#160;&#160;&#160;&#160;&#160;&#160;&#160;• Саммари каждые 3&#45;4 обмена &#160;&#160;&#160;&#160;&#160;&#160;&#160;&#160;&#160;&#160;&#160;&#160;&#160;&#160;&#160;&#160;&#160;&#160;&#160;</text>
</g>
<!-- InterviewerOutput -->
<g id="node3" class="node">
<title>InterviewerOutput</title>
<polygon fill="#ffe0b2" stroke="none" points="669.75,-343.43 669.75,-369.43 872,-369.43 872,-343.43 669.75,-343.43"/>
<polygon fill="none" stroke="black" points="669.75,-343.43 669.75,-369.43 872,-369.43 872,-343.43 669.75,-343.43"/>
<text xml:space="preserve" text-anchor="start" x="755.12" y="-353.93" font-family="Arial" font-weight="bold" font-size="10.00">Output</text>
<polygon fill="none" stroke="black" points="669.75,-293.43 669.75,-343.43 872,-343.43 872,-293.43 669.75,-293.43"/>
<text xml:space="preserve" text-anchor="start" x="697.75" y="-326.93" font-family="Arial" font-size="10.00"> &#160;&#160;&#160;&#160;&#160;&#160;&#160;&#160;&#160;&#160;&#160;&#160;&#160;&#160;&#160;&#160;&#160;&#160;&#160;&#160;&#160;&#160;&#160;• stateUpdates {}</text>
<text xml:space="preserve" text-anchor="start" x="702.25" y="-314.93" font-family="Arial" font-size="10.00"> &#160;&#160;&#160;&#160;&#160;&#160;&#160;&#160;&#160;&#160;&#160;&#160;&#160;&#160;&#160;&#160;&#160;&#160;&#160;&#160;&#160;&#160;&#160;• nextMessage</text>
<text xml:space="preserve" text-anchor="start" x="676.75" y="-302.93" font-family="Arial" font-size="10.00"> &#160;&#160;&#160;&#160;&#160;&#160;&#160;&#160;&#160;&#160;&#160;&#160;&#160;&#160;&#160;&#160;&#160;&#160;&#160;&#160;&#160;&#160;&#160;• isComplete &#160;&#160;&#160;&#160;&#160;&#160;&#160;&#160;&#160;&#160;&#160;&#160;&#160;&#160;&#160;&#160;&#160;&#160;&#160;</text>
</g>
<!-- InterviewerPrompt&#45;&gt;InterviewerOutput -->
<g id="edge2" class="edge">
<title>InterviewerPrompt&#45;&gt;InterviewerOutput</title>
<path fill="none" stroke="black" d="M613.94,-331.43C626.22,-331.43 638.53,-331.43 650.54,-331.43"/>
<polygon fill="black" stroke="black" points="650.44,-334.93 660.44,-331.43 650.44,-327.93 650.44,-334.93"/>
</g>
<!-- InterviewerInput -->
<g id="node2" class="node">
<title>InterviewerInput</title>
<polygon fill="#ffe0b2" stroke="none" points="24,-343.43 24,-369.43 263.75,-369.43 263.75,-343.43 24,-343.43"/>
<polygon fill="none" stroke="black" points="24,-343.43 24,-369.43 263.75,-369.43 263.75,-343.43 24,-343.43"/>
<text xml:space="preserve" text-anchor="start" x="131.88" y="-353.93" font-family="Arial" font-weight="bold" font-size="10.00">Input</text>
<polygon fill="none" stroke="black" points="24,-293.43 24,-343.43 263.75,-343.43 263.75,-293.43 24,-293.43"/>
<text xml:space="preserve" text-anchor="start" x="70" y="-326.93" font-family="Arial" font-size="10.00"> &#160;&#160;&#160;&#160;&#160;&#160;&#160;&#160;&#160;&#160;&#160;&#160;&#160;&#160;&#160;&#160;&#160;&#160;&#160;&#160;&#160;&#160;&#160;• state (текущий)</text>
<text xml:space="preserve" text-anchor="start" x="75.25" y="-314.93" font-family="Arial" font-size="10.00"> &#160;&#160;&#160;&#160;&#160;&#160;&#160;&#160;&#160;&#160;&#160;&#160;&#160;&#160;&#160;&#160;&#160;&#160;&#160;&#160;&#160;&#160;&#160;• userMessage</text>
<text xml:space="preserve" text-anchor="start" x="31" y="-302.93" font-family="Arial" font-size="10.00"> &#160;&#160;&#160;&#160;&#160;&#160;&#160;&#160;&#160;&#160;&#160;&#160;&#160;&#160;&#160;&#160;&#160;&#160;&#160;&#160;&#160;&#160;&#160;• conversationHistory &#160;&#160;&#160;&#160;&#160;&#160;&#160;&#160;&#160;&#160;&#160;&#160;&#160;&#160;&#160;&#160;&#160;&#160;&#160;</text>
</g>
<!-- InterviewerInput&#45;&gt;InterviewerPrompt -->
<g id="edge1" class="edge">
<title>InterviewerInput&#45;&gt;InterviewerPrompt</title>
<path fill="none" stroke="black" d="M271.43,-331.43C280.02,-331.43 288.73,-331.43 297.47,-331.43"/>
<polygon fill="black" stroke="black" points="297.44,-334.93 307.44,-331.43 297.44,-327.93 297.44,-334.93"/>
</g>
<!-- GeneratorInput -->
<g id="node5" class="node">
<title>GeneratorInput</title>
<polygon fill="#c8e6c9" stroke="none" points="55.5,-598.43 55.5,-624.43 232.25,-624.43 232.25,-598.43 55.5,-598.43"/>
<polygon fill="none" stroke="black" points="55.5,-598.43 55.5,-624.43 232.25,-624.43 232.25,-598.43 55.5,-598.43"/>
<text xml:space="preserve" text-anchor="start" x="131.88" y="-608.93" font-family="Arial" font-weight="bold" font-size="10.00">Input</text>
<polygon fill="none" stroke="black" points="55.5,-500.43 55.5,-598.43 232.25,-598.43 232.25,-500.43 55.5,-500.43"/>
<text xml:space="preserve" text-anchor="start" x="82.38" y="-581.93" font-family="Arial" font-size="10.00"> &#160;&#160;&#160;&#160;&#160;&#160;&#160;&#160;&#160;&#160;&#160;&#160;&#160;&#160;&#160;&#160;&#160;&#160;&#160;&#160;&#160;&#160;&#160;AjtbdState {</text>
<text xml:space="preserve" text-anchor="start" x="62.5" y="-569.93" font-family="Arial" font-size="10.00"> &#160;&#160;&#160;&#160;&#160;&#160;&#160;&#160;&#160;&#160;&#160;&#160;&#160;&#160;&#160;&#160;&#160;&#160;&#160;&#160;&#160;&#160;&#160;  productDescription,</text>
<text xml:space="preserve" text-anchor="start" x="70.75" y="-557.93" font-family="Arial" font-size="10.00"> &#160;&#160;&#160;&#160;&#160;&#160;&#160;&#160;&#160;&#160;&#160;&#160;&#160;&#160;&#160;&#160;&#160;&#160;&#160;&#160;&#160;&#160;&#160;  targetAudience,</text>
<text xml:space="preserve" text-anchor="start" x="72.62" y="-545.93" font-family="Arial" font-size="10.00"> &#160;&#160;&#160;&#160;&#160;&#160;&#160;&#160;&#160;&#160;&#160;&#160;&#160;&#160;&#160;&#160;&#160;&#160;&#160;&#160;&#160;&#160;&#160;  pointA, pointB,</text>
<text xml:space="preserve" text-anchor="start" x="67.38" y="-533.93" font-family="Arial" font-size="10.00"> &#160;&#160;&#160;&#160;&#160;&#160;&#160;&#160;&#160;&#160;&#160;&#160;&#160;&#160;&#160;&#160;&#160;&#160;&#160;&#160;&#160;&#160;&#160;  valueProposition,</text>
<text xml:space="preserve" text-anchor="start" x="100.38" y="-521.93" font-family="Arial" font-size="10.00"> &#160;&#160;&#160;&#160;&#160;&#160;&#160;&#160;&#160;&#160;&#160;&#160;&#160;&#160;&#160;&#160;&#160;&#160;&#160;&#160;&#160;&#160;&#160;  ...</text>
<text xml:space="preserve" text-anchor="start" x="76.38" y="-509.93" font-family="Arial" font-size="10.00"> &#160;&#160;&#160;&#160;&#160;&#160;&#160;&#160;&#160;&#160;&#160;&#160;&#160;&#160;&#160;&#160;&#160;&#160;&#160;&#160;&#160;&#160;&#160;} &#160;&#160;&#160;&#160;&#160;&#160;&#160;&#160;&#160;&#160;&#160;&#160;&#160;&#160;&#160;&#160;&#160;&#160;&#160;</text>
</g>
<!-- InterviewerOutput&#45;&gt;GeneratorInput -->
<g id="edge7" class="edge">
<title>InterviewerOutput&#45;&gt;GeneratorInput</title>
<path fill="none" stroke="#4caf50" stroke-width="2" d="M712.09,-373.41C683.92,-391.77 648.74,-411.76 614.25,-423.43 484.73,-467.28 437.71,-414.47 308.75,-459.93 286.76,-467.68 264.63,-478.78 244.06,-490.84"/>
<polygon fill="#4caf50" stroke="#4caf50" stroke-width="2" points="243.78,-486.92 237,-495.07 247.38,-492.92 243.78,-486.92"/>
<text xml:space="preserve" text-anchor="middle" x="461.5" y="-461.88" font-family="Arial" font-size="9.00">isComplete: true</text>
</g>
<!-- GeneratorPrompt -->
<g id="node4" class="node">
<title>GeneratorPrompt</title>
<polygon fill="#a5d6a7" stroke="none" points="324.62,-611.43 324.62,-641.43 598.38,-641.43 598.38,-611.43 324.62,-611.43"/>
<polygon fill="none" stroke="black" points="324.62,-611.43 324.62,-641.43 598.38,-641.43 598.38,-611.43 324.62,-611.43"/>
<text xml:space="preserve" text-anchor="start" x="425.5" y="-623.93" font-family="Arial" font-weight="bold" font-size="10.00">System Prompt</text>
<polygon fill="none" stroke="black" points="324.62,-483.43 324.62,-611.43 598.38,-611.43 598.38,-483.43 324.62,-483.43"/>
<text xml:space="preserve" text-anchor="start" x="333.62" y="-593.93" font-family="Arial" font-size="10.00"> &#160;&#160;&#160;&#160;&#160;&#160;&#160;&#160;&#160;&#160;&#160;&#160;&#160;&#160;&#160;&#160;&#160;&#160;&#160;&#160;&#160;&#160;&#160;Ты — UX&#45;архитектор и копирайтер.</text>
<text xml:space="preserve" text-anchor="start" x="333.62" y="-583.93" font-family="Arial" font-size="10.00"> &#160;&#160;&#160;&#160;&#160;&#160;&#160;&#160;&#160;&#160;&#160;&#160;&#160;&#160;&#160;&#160;&#160;&#160;&#160;&#160;&#160;&#160;&#160;</text>
<text xml:space="preserve" text-anchor="start" x="333.62" y="-573.93" font-family="Arial" font-size="10.00"> &#160;&#160;&#160;&#160;&#160;&#160;&#160;&#160;&#160;&#160;&#160;&#160;&#160;&#160;&#160;&#160;&#160;&#160;&#160;&#160;&#160;&#160;&#160;</text>
<text xml:space="preserve" text-anchor="start" x="405.62" y="-573.93" font-family="Arial" font-weight="bold" font-size="10.00">Блоки лендинга:</text>
<text xml:space="preserve" text-anchor="start" x="333.62" y="-563.93" font-family="Arial" font-size="10.00"> &#160;&#160;&#160;&#160;&#160;&#160;&#160;&#160;&#160;&#160;&#160;&#160;&#160;&#160;&#160;&#160;&#160;&#160;&#160;&#160;&#160;&#160;&#160;1. hero — заголовок, подзаголовок, CTA</text>
<text xml:space="preserve" text-anchor="start" x="333.62" y="-553.93" font-family="Arial" font-size="10.00"> &#160;&#160;&#160;&#160;&#160;&#160;&#160;&#160;&#160;&#160;&#160;&#160;&#160;&#160;&#160;&#160;&#160;&#160;&#160;&#160;&#160;&#160;&#160;2. features — 3&#45;4 пункта с иконками</text>
<text xml:space="preserve" text-anchor="start" x="333.62" y="-543.93" font-family="Arial" font-size="10.00"> &#160;&#160;&#160;&#160;&#160;&#160;&#160;&#160;&#160;&#160;&#160;&#160;&#160;&#160;&#160;&#160;&#160;&#160;&#160;&#160;&#160;&#160;&#160;3. problem — описание боли</text>
<text xml:space="preserve" text-anchor="start" x="333.62" y="-533.93" font-family="Arial" font-size="10.00"> &#160;&#160;&#160;&#160;&#160;&#160;&#160;&#160;&#160;&#160;&#160;&#160;&#160;&#160;&#160;&#160;&#160;&#160;&#160;&#160;&#160;&#160;&#160;4. how_it_works — 3 шага</text>
<text xml:space="preserve" text-anchor="start" x="333.62" y="-523.93" font-family="Arial" font-size="10.00"> &#160;&#160;&#160;&#160;&#160;&#160;&#160;&#160;&#160;&#160;&#160;&#160;&#160;&#160;&#160;&#160;&#160;&#160;&#160;&#160;&#160;&#160;&#160;5. competitors — 3&#45;4 преимущества</text>
<text xml:space="preserve" text-anchor="start" x="333.62" y="-513.93" font-family="Arial" font-size="10.00"> &#160;&#160;&#160;&#160;&#160;&#160;&#160;&#160;&#160;&#160;&#160;&#160;&#160;&#160;&#160;&#160;&#160;&#160;&#160;&#160;&#160;&#160;&#160;6. cta — финальный призыв</text>
<text xml:space="preserve" text-anchor="start" x="333.62" y="-503.93" font-family="Arial" font-size="10.00"> &#160;&#160;&#160;&#160;&#160;&#160;&#160;&#160;&#160;&#160;&#160;&#160;&#160;&#160;&#160;&#160;&#160;&#160;&#160;&#160;&#160;&#160;&#160;</text>
<text xml:space="preserve" text-anchor="start" x="333.62" y="-493.93" font-family="Arial" font-size="10.00"> &#160;&#160;&#160;&#160;&#160;&#160;&#160;&#160;&#160;&#160;&#160;&#160;&#160;&#160;&#160;&#160;&#160;&#160;&#160;&#160;&#160;&#160;&#160;</text>
<text xml:space="preserve" text-anchor="start" x="405.62" y="-493.93" font-family="Arial" font-weight="bold" font-size="10.00">Формат:</text>
<text xml:space="preserve" text-anchor="start" x="446.88" y="-493.93" font-family="Arial" font-size="10.00"> JSON с blocks[] &#160;&#160;&#160;&#160;&#160;&#160;&#160;&#160;&#160;&#160;&#160;&#160;&#160;&#160;&#160;&#160;&#160;&#160;&#160;</text>
</g>
<!-- GeneratorOutput -->
<g id="node6" class="node">
<title>GeneratorOutput</title>
<polygon fill="#c8e6c9" stroke="none" points="683.62,-592.43 683.62,-618.43 858.12,-618.43 858.12,-592.43 683.62,-592.43"/>
<polygon fill="none" stroke="black" points="683.62,-592.43 683.62,-618.43 858.12,-618.43 858.12,-592.43 683.62,-592.43"/>
<text xml:space="preserve" text-anchor="start" x="755.12" y="-602.93" font-family="Arial" font-weight="bold" font-size="10.00">Output</text>
<polygon fill="none" stroke="black" points="683.62,-506.43 683.62,-592.43 858.12,-592.43 858.12,-506.43 683.62,-506.43"/>
<text xml:space="preserve" text-anchor="start" x="693.25" y="-575.93" font-family="Arial" font-size="10.00"> &#160;&#160;&#160;&#160;&#160;&#160;&#160;&#160;&#160;&#160;&#160;&#160;&#160;&#160;&#160;&#160;&#160;&#160;&#160;&#160;&#160;&#160;&#160;LandingPageData {</text>
<text xml:space="preserve" text-anchor="start" x="713.12" y="-563.93" font-family="Arial" font-size="10.00"> &#160;&#160;&#160;&#160;&#160;&#160;&#160;&#160;&#160;&#160;&#160;&#160;&#160;&#160;&#160;&#160;&#160;&#160;&#160;&#160;&#160;&#160;&#160;  settings,</text>
<text xml:space="preserve" text-anchor="start" x="713.12" y="-551.93" font-family="Arial" font-size="10.00"> &#160;&#160;&#160;&#160;&#160;&#160;&#160;&#160;&#160;&#160;&#160;&#160;&#160;&#160;&#160;&#160;&#160;&#160;&#160;&#160;&#160;&#160;&#160;  blocks: [</text>
<text xml:space="preserve" text-anchor="start" x="690.62" y="-539.93" font-family="Arial" font-size="10.00"> &#160;&#160;&#160;&#160;&#160;&#160;&#160;&#160;&#160;&#160;&#160;&#160;&#160;&#160;&#160;&#160;&#160;&#160;&#160;&#160;&#160;&#160;&#160;    {id, type, content}</text>
<text xml:space="preserve" text-anchor="start" x="730.38" y="-527.93" font-family="Arial" font-size="10.00"> &#160;&#160;&#160;&#160;&#160;&#160;&#160;&#160;&#160;&#160;&#160;&#160;&#160;&#160;&#160;&#160;&#160;&#160;&#160;&#160;&#160;&#160;&#160;  ]</text>
<text xml:space="preserve" text-anchor="start" x="703.38" y="-515.93" font-family="Arial" font-size="10.00"> &#160;&#160;&#160;&#160;&#160;&#160;&#160;&#160;&#160;&#160;&#160;&#160;&#160;&#160;&#160;&#160;&#160;&#160;&#160;&#160;&#160;&#160;&#160;} &#160;&#160;&#160;&#160;&#160;&#160;&#160;&#160;&#160;&#160;&#160;&#160;&#160;&#160;&#160;&#160;&#160;&#160;&#160;</text>
</g>
<!-- GeneratorPrompt&#45;&gt;GeneratorOutput -->
<g id="edge4" class="edge">
<title>GeneratorPrompt&#45;&gt;GeneratorOutput</title>
<path fill="none" stroke="black" d="M606.29,-562.43C625.83,-562.43 645.58,-562.43 664.27,-562.43"/>
<polygon fill="black" stroke="black" points="664.25,-565.93 674.25,-562.43 664.25,-558.93 664.25,-565.93"/>
</g>
<!-- GeneratorInput&#45;&gt;GeneratorPrompt -->
<g id="edge3" class="edge">
<title>GeneratorInput&#45;&gt;GeneratorPrompt</title>
<path fill="none" stroke="black" d="M240,-562.43C260.73,-562.43 283.18,-562.43 305.56,-562.43"/>
<polygon fill="black" stroke="black" points="305.37,-565.93 315.37,-562.43 305.37,-558.93 305.37,-565.93"/>
</g>
<!-- EditorInput -->
<g id="node8" class="node">
<title>EditorInput</title>
<polygon fill="#f8bbd9" stroke="none" points="33.38,-140.43 33.38,-166.43 254.38,-166.43 254.38,-140.43 33.38,-140.43"/>
<polygon fill="none" stroke="black" points="33.38,-140.43 33.38,-166.43 254.38,-166.43 254.38,-140.43 33.38,-140.43"/>
<text xml:space="preserve" text-anchor="start" x="131.88" y="-150.93" font-family="Arial" font-weight="bold" font-size="10.00">Input</text>
<polygon fill="none" stroke="black" points="33.38,-102.43 33.38,-140.43 254.38,-140.43 254.38,-102.43 33.38,-102.43"/>
<text xml:space="preserve" text-anchor="start" x="78.25" y="-123.93" font-family="Arial" font-size="10.00"> &#160;&#160;&#160;&#160;&#160;&#160;&#160;&#160;&#160;&#160;&#160;&#160;&#160;&#160;&#160;&#160;&#160;&#160;&#160;&#160;&#160;&#160;&#160;• editRequest</text>
<text xml:space="preserve" text-anchor="start" x="40.38" y="-111.93" font-family="Arial" font-size="10.00"> &#160;&#160;&#160;&#160;&#160;&#160;&#160;&#160;&#160;&#160;&#160;&#160;&#160;&#160;&#160;&#160;&#160;&#160;&#160;&#160;&#160;&#160;&#160;• currentSiteJson &#160;&#160;&#160;&#160;&#160;&#160;&#160;&#160;&#160;&#160;&#160;&#160;&#160;&#160;&#160;&#160;&#160;&#160;&#160;</text>
</g>
<!-- GeneratorOutput&#45;&gt;EditorInput -->
<g id="edge8" class="edge">
<title>GeneratorOutput&#45;&gt;EditorInput</title>
<path fill="none" stroke="#e91e63" stroke-dasharray="5,2" d="M691.29,-502.54C675.51,-486.69 660.85,-468.38 651.25,-448.43 612.39,-367.69 680.45,-107.31 614.25,-46.93 501.78,55.65 309.15,-33.96 209.23,-92.82"/>
<polygon fill="#e91e63" stroke="#e91e63" points="207.65,-89.68 200.86,-97.81 211.24,-95.69 207.65,-89.68"/>
<text xml:space="preserve" text-anchor="middle" x="461.5" y="-48.88" font-family="Arial" font-size="9.00">user edit request</text>
</g>
<!-- EditorPrompt -->
<g id="node7" class="node">
<title>EditorPrompt</title>
<polygon fill="#f48fb1" stroke="none" points="335.5,-168.43 335.5,-198.43 587.5,-198.43 587.5,-168.43 335.5,-168.43"/>
<polygon fill="none" stroke="black" points="335.5,-168.43 335.5,-198.43 587.5,-198.43 587.5,-168.43 335.5,-168.43"/>
<text xml:space="preserve" text-anchor="start" x="425.5" y="-180.93" font-family="Arial" font-weight="bold" font-size="10.00">System Prompt</text>
<polygon fill="none" stroke="black" points="335.5,-70.43 335.5,-168.43 587.5,-168.43 587.5,-70.43 335.5,-70.43"/>
<text xml:space="preserve" text-anchor="start" x="344.5" y="-150.93" font-family="Arial" font-size="10.00"> &#160;&#160;&#160;&#160;&#160;&#160;&#160;&#160;&#160;&#160;&#160;&#160;&#160;&#160;&#160;&#160;&#160;&#160;&#160;&#160;&#160;&#160;&#160;Ты — ИИ&#45;ассистент для</text>
<text xml:space="preserve" text-anchor="start" x="344.5" y="-140.93" font-family="Arial" font-size="10.00"> &#160;&#160;&#160;&#160;&#160;&#160;&#160;&#160;&#160;&#160;&#160;&#160;&#160;&#160;&#160;&#160;&#160;&#160;&#160;&#160;&#160;&#160;&#160;редактирования лендинга.</text>
<text xml:space="preserve" text-anchor="start" x="344.5" y="-130.93" font-family="Arial" font-size="10.00"> &#160;&#160;&#160;&#160;&#160;&#160;&#160;&#160;&#160;&#160;&#160;&#160;&#160;&#160;&#160;&#160;&#160;&#160;&#160;&#160;&#160;&#160;&#160;</text>
<text xml:space="preserve" text-anchor="start" x="344.5" y="-120.93" font-family="Arial" font-size="10.00"> &#160;&#160;&#160;&#160;&#160;&#160;&#160;&#160;&#160;&#160;&#160;&#160;&#160;&#160;&#160;&#160;&#160;&#160;&#160;&#160;&#160;&#160;&#160;</text>
<text xml:space="preserve" text-anchor="start" x="416.5" y="-120.93" font-family="Arial" font-weight="bold" font-size="10.00">Правила:</text>
<text xml:space="preserve" text-anchor="start" x="344.5" y="-110.93" font-family="Arial" font-size="10.00"> &#160;&#160;&#160;&#160;&#160;&#160;&#160;&#160;&#160;&#160;&#160;&#160;&#160;&#160;&#160;&#160;&#160;&#160;&#160;&#160;&#160;&#160;&#160;• blocks — это МАССИВ</text>
<text xml:space="preserve" text-anchor="start" x="344.5" y="-100.93" font-family="Arial" font-size="10.00"> &#160;&#160;&#160;&#160;&#160;&#160;&#160;&#160;&#160;&#160;&#160;&#160;&#160;&#160;&#160;&#160;&#160;&#160;&#160;&#160;&#160;&#160;&#160;• Меняй только запрошенное</text>
<text xml:space="preserve" text-anchor="start" x="344.5" y="-90.93" font-family="Arial" font-size="10.00"> &#160;&#160;&#160;&#160;&#160;&#160;&#160;&#160;&#160;&#160;&#160;&#160;&#160;&#160;&#160;&#160;&#160;&#160;&#160;&#160;&#160;&#160;&#160;• Сохраняй остальное</text>
<text xml:space="preserve" text-anchor="start" x="344.5" y="-80.93" font-family="Arial" font-size="10.00"> &#160;&#160;&#160;&#160;&#160;&#160;&#160;&#160;&#160;&#160;&#160;&#160;&#160;&#160;&#160;&#160;&#160;&#160;&#160;&#160;&#160;&#160;&#160;• Верни полный JSON &#160;&#160;&#160;&#160;&#160;&#160;&#160;&#160;&#160;&#160;&#160;&#160;&#160;&#160;&#160;&#160;&#160;&#160;&#160;</text>
</g>
<!-- EditorOutput -->
<g id="node9" class="node">
<title>EditorOutput</title>
<polygon fill="#f8bbd9" stroke="none" points="659.25,-140.43 659.25,-166.43 882.5,-166.43 882.5,-140.43 659.25,-140.43"/>
<polygon fill="none" stroke="black" points="659.25,-140.43 659.25,-166.43 882.5,-166.43 882.5,-140.43 659.25,-140.43"/>
<text xml:space="preserve" text-anchor="start" x="755.12" y="-150.93" font-family="Arial" font-weight="bold" font-size="10.00">Output</text>
<polygon fill="none" stroke="black" points="659.25,-102.43 659.25,-140.43 882.5,-140.43 882.5,-102.43 659.25,-102.43"/>
<text xml:space="preserve" text-anchor="start" x="716.5" y="-123.93" font-family="Arial" font-size="10.00"> &#160;&#160;&#160;&#160;&#160;&#160;&#160;&#160;&#160;&#160;&#160;&#160;&#160;&#160;&#160;&#160;&#160;&#160;&#160;&#160;&#160;&#160;&#160;Updated</text>
<text xml:space="preserve" text-anchor="start" x="666.25" y="-111.93" font-family="Arial" font-size="10.00"> &#160;&#160;&#160;&#160;&#160;&#160;&#160;&#160;&#160;&#160;&#160;&#160;&#160;&#160;&#160;&#160;&#160;&#160;&#160;&#160;&#160;&#160;&#160;LandingPageData &#160;&#160;&#160;&#160;&#160;&#160;&#160;&#160;&#160;&#160;&#160;&#160;&#160;&#160;&#160;&#160;&#160;&#160;&#160;</text>
</g>
<!-- EditorPrompt&#45;&gt;EditorOutput -->
<g id="edge6" class="edge">
<title>EditorPrompt&#45;&gt;EditorOutput</title>
<path fill="none" stroke="black" d="M595.08,-134.43C609.97,-134.43 625.13,-134.43 639.99,-134.43"/>
<polygon fill="black" stroke="black" points="639.77,-137.93 649.77,-134.43 639.77,-130.93 639.77,-137.93"/>
</g>
<!-- EditorInput&#45;&gt;EditorPrompt -->
<g id="edge5" class="edge">
<title>EditorInput&#45;&gt;EditorPrompt</title>
<path fill="none" stroke="black" d="M261.95,-134.43C279.68,-134.43 298.14,-134.43 316.35,-134.43"/>
<polygon fill="black" stroke="black" points="316.14,-137.93 326.14,-134.43 316.14,-130.93 316.14,-137.93"/>
</g>
</g>
</svg>
